<svg viewBox="0 0 400 400" fill="none" xmlns="http://www.w3.org/2000/svg"><g id="SVGRepo_bgCarrier" stroke-width="0"></g><g id="SVGRepo_tracerCarrier" stroke-linecap="round" stroke-linejoin="round"></g><g id="SVGRepo_iconCarrier"> <path opacity="0.503384" d="M218 114C207.781 109.763 154.466 96.9807 154.003 84.1942C153.821 79.1711 163.082 56.6235 198.713 64.7485C220.618 69.7438 218.862 91.1757 216.415 100.38C215.24 104.802 209.03 107.489 206.47 111.291" stroke="#fff" stroke-opacity="0.9" stroke-width="14" stroke-linecap="round" stroke-linejoin="round"></path> <path d="M201 117.298C184.868 158.187 136.401 145.476 150.559 100" stroke="#fff" stroke-opacity="0.9" stroke-width="16" stroke-linecap="round" stroke-linejoin="round"></path> <path d="M148 160C142.818 180.198 139.446 255.845 132.989 271.659C125.3 290.488 106.806 314.605 94 330.289L104.368 338" stroke="#fff" stroke-opacity="0.9" stroke-width="16" stroke-linecap="round" stroke-linejoin="round"></path> <path d="M192 337.972C190.266 338.205 176.583 336.923 175.993 336.548C175.402 336.172 175.993 256.168 159 223.477L169.475 163" stroke="#ff0" stroke-opacity="0.9" stroke-width="16" stroke-linecap="round" stroke-linejoin="round"></path> <path d="M146 159.005C102.339 158.613 92.0143 182.286 137.795 202" stroke="#f0f" stroke-opacity="0.9" stroke-width="16" stroke-linecap="round" stroke-linejoin="round"></path> <path d="M172 165C186.105 183.05 196.892 207.331 211 224" stroke="#0ff" stroke-opacity="0.9" stroke-width="16" stroke-linecap="round" stroke-linejoin="round"></path> <path d="M96 203C150.657 211.5 190.692 213.45 245 220" stroke="#fff" stroke-opacity="0.9" stroke-width="16" stroke-linecap="round" stroke-linejoin="round"></path> <path d="M258.602 205.264C258.59 210.596 247.596 234.326 252.071 238.962C267.089 254.519 327.744 243.246 297.814 215.374C289.444 207.58 275.964 204.476 261.737 203" stroke="#ccc" stroke-opacity="0.9" stroke-width="16" stroke-linecap="round" stroke-linejoin="round"></path> </g></svg>